<svg width="1200" height="675" viewBox="0 0 1200 675" fill="none" xmlns="http://www.w3.org/2000/svg" role="img" aria-labelledby="title desc">
  <title id="title">OpenLoop product demo</title>
  <desc id="desc">A local dashboard showing project scans, campaign workflows, app screenshots, social slides, and export folders.</desc>
  <rect width="1200" height="675" rx="36" fill="#F6F3EC"/>
  <rect x="42" y="42" width="1116" height="591" rx="28" fill="#111316"/>
  <rect x="70" y="70" width="1060" height="535" rx="20" fill="#FBFAF6"/>
  <rect x="70" y="70" width="1060" height="74" rx="20" fill="#171A1F"/>
  <circle cx="105" cy="107" r="8" fill="#F26D5B"/>
  <circle cx="130" cy="107" r="8" fill="#E9C84B"/>
  <circle cx="155" cy="107" r="8" fill="#48B89F"/>
  <text x="194" y="113" fill="#F7F4EA" font-family="Arial, Helvetica, sans-serif" font-size="24" font-weight="700">OpenLoop</text>
  <text x="326" y="113" fill="#AEB6C2" font-family="Arial, Helvetica, sans-serif" font-size="15">Local campaign control</text>
  <rect x="958" y="91" width="128" height="32" rx="16" fill="#F8D34A"/>
  <text x="984" y="112" fill="#151515" font-family="Arial, Helvetica, sans-serif" font-size="14" font-weight="700">Run assets</text>
  <rect x="94" y="170" width="276" height="402" rx="18" fill="#F0EFE8" stroke="#D8D3C6"/>
  <text x="122" y="207" fill="#22252A" font-family="Arial, Helvetica, sans-serif" font-size="18" font-weight="700">Projects</text>
  <rect x="122" y="230" width="220" height="38" rx="10" fill="#FFFFFF" stroke="#D6D2C6"/>
  <text x="142" y="254" fill="#6D747D" font-family="Arial, Helvetica, sans-serif" font-size="14">Filter projects</text>
  <rect x="122" y="294" width="220" height="78" rx="14" fill="#FFFFFF" stroke="#D4D0C4"/>
  <circle cx="151" cy="333" r="18" fill="#48B89F"/>
  <text x="182" y="326" fill="#24272C" font-family="Arial, Helvetica, sans-serif" font-size="15" font-weight="700">QuickShift</text>
  <text x="182" y="350" fill="#77808B" font-family="Arial, Helvetica, sans-serif" font-size="13">5 screenshots ready</text>
  <rect x="122" y="390" width="220" height="78" rx="14" fill="#FFFFFF" stroke="#D4D0C4"/>
  <circle cx="151" cy="429" r="18" fill="#F26D5B"/>
  <text x="182" y="422" fill="#24272C" font-family="Arial, Helvetica, sans-serif" font-size="15" font-weight="700">StyleDNA</text>
  <text x="182" y="446" fill="#77808B" font-family="Arial, Helvetica, sans-serif" font-size="13">Social carousel plan</text>
  <rect x="122" y="491" width="96" height="52" rx="13" fill="#171A1F"/>
  <text x="142" y="522" fill="#F7F4EA" font-family="Arial, Helvetica, sans-serif" font-size="24" font-weight="700">3</text>
  <text x="174" y="521" fill="#AEB6C2" font-family="Arial, Helvetica, sans-serif" font-size="12">runs</text>
  <rect x="232" y="491" width="110" height="52" rx="13" fill="#FFFFFF" stroke="#D4D0C4"/>
  <text x="253" y="522" fill="#22252A" font-family="Arial, Helvetica, sans-serif" font-size="24" font-weight="700">23</text>
  <text x="294" y="521" fill="#77808B" font-family="Arial, Helvetica, sans-serif" font-size="12">assets</text>
  <rect x="400" y="170" width="706" height="402" rx="18" fill="#FFFFFF" stroke="#D8D3C6"/>
  <text x="430" y="209" fill="#22252A" font-family="Arial, Helvetica, sans-serif" font-size="24" font-weight="800">Launch campaign</text>
  <text x="430" y="235" fill="#6D747D" font-family="Arial, Helvetica, sans-serif" font-size="14">Scan project evidence, plan workflow assets, export review-ready files.</text>
  <rect x="430" y="267" width="196" height="92" rx="16" fill="#FFF7CF" stroke="#E8D46B"/>
  <text x="452" y="297" fill="#7A5D00" font-family="Arial, Helvetica, sans-serif" font-size="13" font-weight="700">SCAN</text>
  <text x="452" y="324" fill="#22252A" font-family="Arial, Helvetica, sans-serif" font-size="18" font-weight="800">Product brief</text>
  <text x="452" y="346" fill="#6D747D" font-family="Arial, Helvetica, sans-serif" font-size="12">docs, app copy, code signals</text>
  <rect x="650" y="267" width="196" height="92" rx="16" fill="#DFF5EF" stroke="#95D9C8"/>
  <text x="672" y="297" fill="#126B58" font-family="Arial, Helvetica, sans-serif" font-size="13" font-weight="700">PLAN</text>
  <text x="672" y="324" fill="#22252A" font-family="Arial, Helvetica, sans-serif" font-size="18" font-weight="800">Workflow assets</text>
  <text x="672" y="346" fill="#6D747D" font-family="Arial, Helvetica, sans-serif" font-size="12">slides, screenshots, app ads</text>
  <rect x="870" y="267" width="196" height="92" rx="16" fill="#FEE8E3" stroke="#F2AC9E"/>
  <text x="892" y="297" fill="#973622" font-family="Arial, Helvetica, sans-serif" font-size="13" font-weight="700">EXPORT</text>
  <text x="892" y="324" fill="#22252A" font-family="Arial, Helvetica, sans-serif" font-size="18" font-weight="800">Ready folders</text>
  <text x="892" y="346" fill="#6D747D" font-family="Arial, Helvetica, sans-serif" font-size="12">PNG, preview, captions</text>
  <rect x="430" y="392" width="132" height="132" rx="18" fill="#1B1F27"/>
  <rect x="454" y="416" width="84" height="84" rx="17" fill="#F6F3EC"/>
  <rect x="466" y="434" width="60" height="16" rx="8" fill="#F8D34A"/>
  <rect x="466" y="462" width="60" height="28" rx="8" fill="#48B89F"/>
  <rect x="588" y="392" width="132" height="132" rx="18" fill="#F8D34A"/>
  <rect x="612" y="414" width="84" height="88" rx="18" fill="#FFFFFF"/>
  <rect x="626" y="432" width="56" height="12" rx="6" fill="#22252A"/>
  <rect x="626" y="455" width="56" height="36" rx="10" fill="#F26D5B"/>
  <rect x="746" y="392" width="132" height="132" rx="18" fill="#48B89F"/>
  <path d="M780 468C780 436 805 418 839 418C849 438 846 473 828 498C806 493 790 484 780 468Z" fill="#F6F3EC"/>
  <rect x="783" y="500" width="58" height="10" rx="5" fill="#126B58"/>
  <rect x="904" y="392" width="132" height="132" rx="18" fill="#F26D5B"/>
  <rect x="928" y="421" width="84" height="74" rx="16" fill="#FFFFFF"/>
  <rect x="946" y="439" width="48" height="38" rx="8" fill="#60D36E"/>
  <text x="930" y="548" fill="#6D747D" font-family="Arial, Helvetica, sans-serif" font-size="12">.openloop/campaign</text>
</svg>
